<?xml version="1.0" standalone="no"?>
<!DOCTYPE svg PUBLIC "-//W3C//DTD SVG 20010904//EN"
 "http://www.w3.org/TR/2001/REC-SVG-20010904/DTD/svg10.dtd">
<svg version="1.0" xmlns="http://www.w3.org/2000/svg"
 width="300.000000pt" height="227.000000pt" viewBox="0 0 300.000000 227.000000"
 preserveAspectRatio="xMidYMid meet">
<metadata>
Created by potrace 1.10, written by Peter Selinger 2001-2011
</metadata>
<g transform="translate(0.000000,227.000000) scale(0.100000,-0.100000)"
fill="#000000" stroke="none">
<path d="M1485 2163 c-47 -5 -51 -10 -60 -78 l-6 -51 -67 -23 c-37 -13 -79
-28 -93 -33 -23 -9 -33 -6 -74 22 l-47 32 -69 -68 -68 -68 35 -43 36 -44 -43
-94 -43 -94 -56 -3 -55 -3 -3 -101 -3 -102 62 -7 c51 -6 62 -11 67 -29 3 -11
22 -53 42 -93 l36 -72 -33 -38 c-18 -21 -32 -43 -33 -48 0 -6 29 -39 64 -74
l64 -64 53 33 c49 30 56 32 84 20 16 -7 55 -22 85 -33 30 -12 58 -25 62 -31 3
-5 9 -33 13 -63 l6 -53 99 0 98 0 9 61 8 61 60 23 c33 13 74 28 91 35 29 12
34 11 78 -20 l48 -32 69 68 68 67 -38 46 -38 46 38 80 c22 43 39 84 39 91 0
12 44 24 91 24 l29 0 0 105 0 105 -37 0 c-68 0 -76 6 -119 99 l-41 88 33 39
c18 22 33 43 34 47 0 14 -112 127 -127 127 -8 0 -34 -13 -57 -30 l-43 -29 -79
34 c-44 19 -84 35 -90 35 -7 0 -15 27 -19 65 l-7 65 -43 0 c-24 0 -49 1 -57 3
-7 2 -31 2 -53 0z m117 -50 c10 -9 18 -24 18 -34 0 -29 21 -66 44 -78 64 -32
142 -61 163 -61 14 0 43 10 64 22 l39 22 40 -39 c46 -45 48 -56 19 -97 -25
-35 -22 -61 20 -150 33 -72 53 -93 96 -104 48 -11 55 -22 55 -84 0 -61 -4 -66
-60 -77 -37 -7 -56 -28 -81 -91 -13 -31 -29 -68 -36 -82 -18 -36 -16 -50 13
-94 26 -38 26 -38 7 -64 -11 -14 -31 -35 -46 -46 l-27 -20 -49 23 c-44 21 -53
22 -87 11 -121 -40 -174 -78 -174 -126 0 -32 -29 -50 -83 -53 -53 -3 -76 14
-77 55 0 40 -37 70 -125 104 l-86 33 -47 -24 c-26 -13 -50 -25 -53 -27 -11 -5
-89 80 -89 97 0 9 9 27 20 41 27 35 25 50 -19 143 -42 90 -62 113 -104 121
-46 8 -57 24 -57 81 0 59 8 69 62 79 41 8 69 39 92 104 8 22 22 54 31 71 15
31 15 34 -8 75 -21 37 -22 46 -11 67 6 13 27 35 44 48 l32 23 43 -21 c23 -11
49 -21 56 -21 18 0 176 65 194 80 7 6 16 27 20 48 4 20 11 43 17 50 16 18 108
15 130 -5z"/>
<path d="M1446 1918 c-216 -20 -376 -195 -376 -412 0 -76 17 -116 48 -116 13
0 25 -24 46 -91 38 -117 57 -143 102 -135 23 5 43 1 67 -13 105 -59 266 -70
383 -26 39 14 83 37 99 50 115 95 158 172 163 290 4 96 -8 138 -39 133 -26 -4
-28 -8 -71 -113 -52 -128 -138 -206 -248 -222 -63 -10 -82 -10 -130 1 -61 13
-80 27 -80 58 0 43 -29 63 -142 99 l-105 32 7 36 c18 96 103 200 200 245 105
49 278 27 306 -39 18 -44 41 -61 111 -80 73 -20 110 -14 119 18 7 30 -42 179
-68 207 -16 17 -28 21 -50 16 -21 -4 -45 3 -86 23 -71 36 -154 49 -256 39z
m169 -40 c45 -11 112 -43 136 -64 14 -12 18 -11 34 6 10 11 22 20 26 20 8 0
81 -211 75 -217 -8 -8 -186 52 -182 62 19 45 19 45 -37 71 -235 107 -478 -20
-531 -276 -24 -119 -49 -68 -34 69 28 242 263 393 513 329z m338 -332 c4 -24
2 -69 -3 -100 -30 -185 -194 -317 -395 -317 -87 -1 -169 23 -235 68 -35 24
-35 24 -49 3 -7 -11 -19 -20 -25 -20 -11 0 -91 238 -83 247 3 2 16 -2 29 -10
12 -8 62 -27 111 -41 l87 -27 -15 -29 c-8 -16 -15 -32 -15 -35 0 -3 26 -18 58
-33 48 -22 71 -27 142 -27 71 0 94 5 142 27 111 52 181 140 213 271 10 37 21
67 25 67 4 0 10 -20 13 -44z"/>
<path d="M1770 732 c-61 -30 -75 -97 -31 -141 10 -10 48 -28 84 -40 69 -23 80
-34 65 -63 -11 -23 -77 -24 -119 -2 -24 12 -34 13 -45 3 -24 -20 -15 -39 29
-59 102 -47 207 -4 207 84 0 39 -37 75 -94 91 -72 21 -94 38 -80 62 15 24 57
28 97 8 31 -15 33 -15 50 6 22 27 10 45 -42 59 -52 14 -81 12 -121 -8z"/>
<path d="M2760 727 c-91 -48 -117 -171 -55 -252 46 -61 134 -83 209 -51 44 18
52 33 31 56 -16 17 -20 18 -38 5 -12 -8 -41 -15 -64 -15 -33 0 -50 7 -75 29
-29 26 -33 35 -33 81 0 46 4 55 33 81 37 33 93 39 130 13 21 -15 24 -14 42 8
18 21 18 24 2 36 -20 15 -78 32 -113 32 -14 0 -45 -10 -69 -23z"/>
<path d="M90 583 l47 -158 36 -3 36 -3 26 88 c15 48 29 97 32 108 4 13 17 -16
40 -88 l34 -108 35 3 36 3 44 150 c24 83 43 154 44 158 0 5 -14 7 -32 5 -32
-3 -32 -3 -62 -120 -17 -65 -33 -118 -36 -118 -3 0 -10 21 -17 48 -6 26 -21
80 -33 120 -21 68 -24 72 -51 72 -20 0 -29 -5 -29 -16 0 -12 -37 -151 -57
-214 -7 -21 -15 1 -48 128 l-27 102 -33 0 -32 0 47 -157z"/>
<path d="M550 578 l0 -163 30 0 30 0 0 68 0 67 70 0 70 0 0 -68 0 -68 33 4 32
4 0 159 0 159 -32 0 -33 0 0 -65 0 -65 -70 0 -70 0 0 65 0 65 -30 0 -30 0 0
-162z"/>
<path d="M880 580 l0 -160 121 0 120 0 -3 27 -3 26 -82 -2 -83 -2 0 40 0 41
75 0 75 0 0 30 0 30 -75 0 -75 0 0 41 0 40 83 -2 82 -2 3 26 3 27 -120 0 -121
0 0 -160z"/>
<path d="M1170 580 l0 -160 110 0 c61 0 113 0 117 0 4 0 7 12 7 27 l0 27 -87
-3 -87 -3 0 41 0 41 80 0 80 0 0 30 0 30 -80 0 -80 0 0 41 0 41 86 -3 87 -3 3
27 3 27 -120 0 -119 0 0 -160z"/>
<path d="M1460 578 l0 -163 110 0 110 0 0 28 0 27 -80 0 -80 0 0 135 0 135
-30 0 -30 0 0 -162z"/>
<path d="M2030 647 c58 -91 60 -96 60 -160 l0 -67 36 0 35 0 -2 66 c-2 65 -2
67 59 160 l61 94 -38 0 c-36 0 -40 -4 -75 -60 -21 -33 -41 -58 -45 -55 -5 2
-23 29 -42 60 -31 51 -36 55 -71 55 l-38 0 60 -93z"/>
<path d="M2330 577 l0 -163 28 1 27 0 5 107 5 107 80 -104 c72 -95 83 -105
113 -105 l32 0 0 160 0 160 -32 0 -33 0 3 -112 c2 -69 0 -109 -6 -103 -5 6
-44 56 -86 113 -67 89 -80 102 -106 102 l-30 0 0 -163z m63 89 c3 -8 0 -17 -8
-19 -15 -7 -25 1 -25 20 0 17 26 17 33 -1z"/>
<path d="M470 245 c0 -10 10 -15 28 -15 l27 0 -3 -65 c-4 -61 -2 -65 18 -65
21 0 22 3 18 65 l-4 65 28 0 c18 0 28 5 28 15 0 12 -14 15 -70 15 -56 0 -70
-3 -70 -15z"/>
<path d="M680 180 l0 -80 60 0 c47 0 60 3 60 15 0 11 -12 15 -45 15 -38 0 -45
3 -45 20 0 17 7 20 40 20 29 0 40 4 40 15 0 11 -11 15 -40 15 -29 0 -40 4 -40
15 0 11 12 15 45 15 33 0 45 4 45 15 0 12 -13 15 -60 15 l-60 0 0 -80z"/>
<path d="M899 241 c-33 -27 -33 -95 0 -122 38 -31 128 -19 115 15 -4 11 -11
12 -35 3 -52 -20 -93 29 -62 73 13 18 22 21 54 17 43 -6 54 0 38 20 -17 19
-83 16 -110 -6z"/>
<path d="M1100 180 c0 -64 3 -80 15 -80 10 0 15 11 15 35 0 34 1 35 40 35 l41
0 -7 -35 c-5 -31 -4 -35 15 -35 20 0 21 5 21 80 0 74 -2 80 -21 80 -16 0 -20
-5 -17 -27 3 -31 1 -33 -42 -33 -27 0 -30 3 -30 30 0 20 -5 30 -15 30 -12 0
-15 -16 -15 -80z"/>
<path d="M1330 180 c0 -63 3 -80 14 -80 11 0 16 15 18 52 l3 53 38 -53 c55
-75 67 -70 67 28 0 63 -3 80 -14 80 -11 0 -16 -14 -18 -51 l-3 -50 -38 50
c-55 74 -67 69 -67 -29z"/>
<path d="M1582 240 c-31 -29 -30 -89 1 -118 51 -48 137 -10 137 61 0 68 -88
104 -138 57z m102 -32 c17 -28 -4 -72 -37 -76 -16 -2 -35 2 -43 9 -17 14 -18
61 -2 77 17 17 69 11 82 -10z"/>
<path d="M1810 180 l0 -80 55 0 c42 0 55 3 55 15 0 11 -11 15 -40 15 l-40 0 0
65 c0 51 -3 65 -15 65 -12 0 -15 -16 -15 -80z"/>
<path d="M2002 240 c-52 -49 -16 -140 55 -140 70 0 106 78 62 134 -26 33 -84
36 -117 6z m98 -31 c26 -47 -25 -100 -69 -72 -20 13 -26 60 -10 79 18 22 66
18 79 -7z"/>
<path d="M2242 237 c-48 -51 -13 -138 54 -136 52 1 66 12 69 52 2 36 1 37 -32
37 -23 0 -33 -5 -33 -15 0 -9 9 -15 21 -15 33 0 16 -25 -19 -28 -41 -4 -62 32
-43 74 10 24 16 26 51 21 41 -5 63 8 39 24 -28 17 -85 10 -107 -14z"/>
<path d="M2460 216 c20 -29 30 -57 30 -80 0 -29 4 -36 20 -36 16 0 20 7 20 36
0 23 10 51 30 80 29 42 30 44 10 44 -13 0 -28 -12 -38 -30 -9 -16 -19 -30 -22
-30 -3 0 -13 14 -22 30 -10 18 -25 30 -38 30 -20 0 -19 -2 10 -44z"/>
</g>
</svg>
